<svg width="14" height="17" viewBox="0 0 14 17" fill="none" xmlns="http://www.w3.org/2000/svg">
<path d="M6.77444 9.07519C8.04511 9.07519 9.07519 8.04511 9.07519 6.77444C9.07519 5.50377 8.04511 4.47368 6.77444 4.47368C5.50377 4.47368 4.47368 5.50377 4.47368 6.77444C4.47368 8.04511 5.50377 9.07519 6.77444 9.07519Z" stroke="#767F8C" stroke-width="2" stroke-linecap="round" stroke-linejoin="round"/>
<path d="M12.5263 6.77444C12.5263 11.9511 6.77444 15.9774 6.77444 15.9774C6.77444 15.9774 1.02256 11.9511 1.02256 6.77444C1.02256 5.24894 1.62856 3.78593 2.70724 2.70724C3.78593 1.62856 5.24894 1.02256 6.77444 1.02256C8.29993 1.02256 9.76294 1.62856 10.8416 2.70724C11.9203 3.78593 12.5263 5.24894 12.5263 6.77444V6.77444Z" stroke="#767F8C" stroke-width="2" stroke-linecap="round" stroke-linejoin="round"/>
</svg>
