<svg width="30" height="30" viewBox="0 0 30 30" fill="none" xmlns="http://www.w3.org/2000/svg">
<path d="M25.0479 21.0704C28.2399 18.2268 30 14.9999 30 14.9999C30 14.9999 24.375 4.68745 15 4.68745C13.0962 4.68745 11.347 5.11274 9.76813 5.79058L11.2135 7.23596C12.3934 6.81215 13.6583 6.56245 15 6.56245C18.9738 6.56245 22.2731 8.75279 24.6898 11.1695C25.8819 12.3616 26.8085 13.5598 27.4364 14.4607C27.5727 14.6564 27.6945 14.8372 27.8012 14.9999C27.6945 15.1627 27.5727 15.3435 27.4364 15.5392C26.8085 16.4401 25.8819 17.6383 24.6898 18.8304C24.3808 19.1394 24.0573 19.4447 23.7198 19.7423L25.0479 21.0704Z" fill="#2D31A6" fill-opacity="0.2"/>
<path d="M21.1828 17.2052C21.4286 16.516 21.5625 15.7736 21.5625 14.9999C21.5625 11.3756 18.6244 8.43745 15 8.43745C14.2263 8.43745 13.484 8.57132 12.7947 8.81718L14.3366 10.359C14.5533 10.3283 14.7748 10.3124 15 10.3124C17.5888 10.3124 19.6875 12.4111 19.6875 14.9999C19.6875 15.2251 19.6716 15.4466 19.6409 15.6634L21.1828 17.2052Z" fill="#2D31A6" fill-opacity="0.2"/>
<path d="M15.6635 19.6409L17.2053 21.1827C16.5161 21.4286 15.7737 21.5624 15 21.5624C11.3756 21.5624 8.4375 18.6243 8.4375 14.9999C8.4375 14.2263 8.57138 13.4839 8.81724 12.7946L10.3591 14.3365C10.3284 14.5532 10.3125 14.7747 10.3125 14.9999C10.3125 17.5888 12.4112 19.6874 15 19.6874C15.2252 19.6874 15.4467 19.6716 15.6635 19.6409Z" fill="#2D31A6" fill-opacity="0.2"/>
<path d="M6.2802 10.2576C5.94273 10.5551 5.61925 10.8605 5.3102 11.1695C4.11808 12.3616 3.19155 13.5598 2.56364 14.4607C2.42726 14.6564 2.30555 14.8372 2.19881 14.9999C2.30555 15.1627 2.42726 15.3435 2.56364 15.5392C3.19155 16.4401 4.11808 17.6383 5.3102 18.8304C7.72693 21.2471 11.0262 23.4374 15 23.4374C16.3418 23.4374 17.6066 23.1877 18.7865 22.7639L20.2319 24.2093C18.6531 24.8872 16.9039 25.3124 15 25.3124C5.625 25.3124 0 14.9999 0 14.9999C0 14.9999 1.76009 11.7731 4.95209 8.92949L6.2802 10.2576Z" fill="#2D31A6" fill-opacity="0.2"/>
<path d="M25.5871 26.9129L3.08709 4.41286L4.41291 3.08704L26.9129 25.587L25.5871 26.9129Z" fill="#2D31A6" fill-opacity="0.2"/>
</svg>
