<svg width="20" height="20" viewBox="0 0 20 20" fill="none" xmlns="http://www.w3.org/2000/svg">
<path d="M6.73383 13.2656L13.2661 6.73333" stroke="#0A65CC" stroke-width="2" stroke-linecap="round" stroke-linejoin="round"/>
<path d="M11.6329 14.8995L8.91107 17.6213C8.04478 18.4873 6.86999 18.9737 5.64508 18.9736C4.42018 18.9735 3.24547 18.4869 2.37933 17.6207C1.51319 16.7546 1.02656 15.5799 1.02645 14.355C1.02635 13.1301 1.51278 11.9553 2.37877 11.089L5.10056 8.36723" stroke="#0A65CC" stroke-width="2" stroke-linecap="round" stroke-linejoin="round"/>
<path d="M14.8995 11.6329L17.6213 8.91107C18.4873 8.04478 18.9737 6.86999 18.9736 5.64508C18.9735 4.42018 18.4869 3.24547 17.6208 2.37933C16.7546 1.51319 15.5799 1.02656 14.355 1.02645C13.1301 1.02635 11.9553 1.51278 11.089 2.37877L8.36723 5.10056" stroke="#0A65CC" stroke-width="2" stroke-linecap="round" stroke-linejoin="round"/>
</svg>
