<svg width="32" height="32" viewBox="0 0 32 32" fill="none" xmlns="http://www.w3.org/2000/svg">
<g clip-path="url(#clip0_180_11019)">
<path opacity="0.2" d="M24.9995 15.0005L22.2021 7.5409C22.1405 7.37658 22.0368 7.23138 21.9013 7.11986C21.7658 7.00835 21.6033 6.93446 21.4302 6.90561L3.99951 4.00049L6.90466 21.4312C6.93351 21.6043 7.00739 21.7668 7.1189 21.9023C7.23041 22.0377 7.37561 22.1415 7.53991 22.2031L14.9995 25.0005L24.9995 15.0005ZM11.9999 14.4998C11.9999 14.0053 12.1466 13.522 12.4213 13.1108C12.696 12.6997 13.0864 12.3793 13.5432 12.1901C14 12.0008 14.5027 11.9513 14.9877 12.0478C15.4726 12.1443 15.9181 12.3824 16.2677 12.732C16.6173 13.0816 16.8554 13.5271 16.9519 14.012C17.0484 14.497 16.9989 14.9997 16.8096 15.4565C16.6204 15.9133 16.3 16.3037 15.8889 16.5784C15.4777 16.8531 14.9944 16.9998 14.4999 16.9998C14.1716 16.9998 13.8465 16.9351 13.5432 16.8095C13.2399 16.6838 12.9643 16.4997 12.7322 16.2675C12.5 16.0354 12.3159 15.7598 12.1902 15.4565C12.0646 15.1532 11.9999 14.8281 11.9999 14.4998Z" fill="#0A65CC"/>
<path d="M12 14.5C12 15.8807 13.1193 17 14.5 17C15.8807 17 17 15.8807 17 14.5C17 13.1193 15.8807 12 14.5 12C13.1193 12 12 13.1193 12 14.5Z" stroke="#0A65CC" stroke-width="2" stroke-linecap="round" stroke-linejoin="round"/>
<path d="M3.99952 4.00098L12.7322 12.7325" stroke="#0A65CC" stroke-width="2" stroke-linecap="round" stroke-linejoin="round"/>
<path d="M3.99952 4.00098L6.90464 21.4317C6.93349 21.6048 7.00738 21.7672 7.11889 21.9027C7.2304 22.0382 7.3756 22.142 7.53991 22.2036L14.9995 25.001L24.9995 15.001L22.2022 7.54137C22.1405 7.37706 22.0368 7.23186 21.9013 7.12035C21.7658 7.00884 21.6033 6.93495 21.4302 6.9061L3.99952 4.00098Z" stroke="#0A65CC" stroke-width="2" stroke-linecap="round" stroke-linejoin="round"/>
<path d="M14.9994 25.001L18.2923 28.2939C18.3852 28.3867 18.4954 28.4604 18.6167 28.5106C18.7381 28.5609 18.8681 28.5868 18.9994 28.5868C19.1307 28.5868 19.2608 28.5609 19.3821 28.5106C19.5034 28.4604 19.6137 28.3867 19.7065 28.2939L28.2923 19.7081C28.4798 19.5205 28.5852 19.2662 28.5852 19.001C28.5852 18.7358 28.4798 18.4814 28.2923 18.2939L24.9994 15.001" stroke="#0A65CC" stroke-width="2" stroke-linecap="round" stroke-linejoin="round"/>
</g>
<defs>
<clipPath id="clip0_180_11019">
<rect width="32" height="32" fill="white" transform="translate(32) rotate(90)"/>
</clipPath>
</defs>
</svg>
