<svg width="20" height="19" viewBox="0 0 20 19" fill="none" xmlns="http://www.w3.org/2000/svg">
<path d="M9.88514 7.57432L9.88515 17.973" stroke="#18191C" stroke-width="2" stroke-linecap="round" stroke-linejoin="round"/>
<path d="M9.88515 1.02703L9.88514 3.72297" stroke="#18191C" stroke-width="2" stroke-linecap="round" stroke-linejoin="round"/>
<path d="M9.88514 7.57432C10.9487 7.57432 11.8108 6.71217 11.8108 5.64865C11.8108 4.58513 10.9487 3.72297 9.88514 3.72297C8.82161 3.72297 7.95946 4.58513 7.95946 5.64865C7.95946 6.71217 8.82161 7.57432 9.88514 7.57432Z" stroke="#18191C" stroke-width="2" stroke-linecap="round" stroke-linejoin="round"/>
<path d="M16.8176 15.277L16.8176 17.973" stroke="#18191C" stroke-width="2" stroke-linecap="round" stroke-linejoin="round"/>
<path d="M16.8176 1.02703L16.8176 11.4257" stroke="#18191C" stroke-width="2" stroke-linecap="round" stroke-linejoin="round"/>
<path d="M16.8176 15.277C17.8811 15.277 18.7432 14.4149 18.7432 13.3514C18.7432 12.2878 17.8811 11.4257 16.8176 11.4257C15.754 11.4257 14.8919 12.2878 14.8919 13.3514C14.8919 14.4149 15.754 15.277 16.8176 15.277Z" stroke="#18191C" stroke-width="2" stroke-linecap="round" stroke-linejoin="round"/>
<path d="M2.95272 12.1959L2.95264 17.973" stroke="#18191C" stroke-width="2" stroke-linecap="round" stroke-linejoin="round"/>
<path d="M2.95264 1.02703L2.95272 8.34459" stroke="#18191C" stroke-width="2" stroke-linecap="round" stroke-linejoin="round"/>
<path d="M2.9527 12.1959C4.01622 12.1959 4.87838 11.3338 4.87838 10.2703C4.87838 9.20675 4.01622 8.34459 2.9527 8.34459C1.88918 8.34459 1.02703 9.20675 1.02703 10.2703C1.02703 11.3338 1.88918 12.1959 2.9527 12.1959Z" stroke="#18191C" stroke-width="2" stroke-linecap="round" stroke-linejoin="round"/>
</svg>
