<svg width="148" height="28" viewBox="0 0 148 28" fill="none" xmlns="http://www.w3.org/2000/svg">
<path d="M12.9241 4.51345C13.3643 3.62165 14.636 3.62165 15.0762 4.51345L17.3262 9.07174C17.5009 9.42555 17.8383 9.6709 18.2287 9.72797L23.2623 10.4637C24.2462 10.6075 24.6383 11.8169 23.926 12.5107L20.2856 16.0564C20.0026 16.3321 19.8734 16.7295 19.9402 17.1189L20.7991 22.1266C20.9672 23.107 19.9382 23.8546 19.0578 23.3916L14.5587 21.0256C14.209 20.8417 13.7913 20.8417 13.4416 21.0256L8.94252 23.3916C8.06217 23.8546 7.03311 23.107 7.20125 22.1266L8.06013 17.1189C8.12693 16.7295 7.99773 16.3321 7.71468 16.0564L4.07431 12.5107C3.362 11.8169 3.75414 10.6075 4.73804 10.4637L9.7716 9.72797C10.162 9.6709 10.4995 9.42555 10.6741 9.07174L12.9241 4.51345Z" fill="#FFAA00"/>
<path d="M42.9241 4.51345C43.3643 3.62165 44.636 3.62165 45.0762 4.51345L47.3262 9.07174C47.5009 9.42555 47.8383 9.6709 48.2287 9.72797L53.2623 10.4637C54.2462 10.6075 54.6383 11.8169 53.926 12.5107L50.2856 16.0564C50.0026 16.3321 49.8734 16.7295 49.9402 17.1189L50.7991 22.1266C50.9672 23.107 49.9382 23.8546 49.0578 23.3916L44.5587 21.0256C44.209 20.8417 43.7913 20.8417 43.4416 21.0256L38.9425 23.3916C38.0622 23.8546 37.0331 23.107 37.2013 22.1266L38.0601 17.1189C38.1269 16.7295 37.9977 16.3321 37.7147 16.0564L34.0743 12.5107C33.362 11.8169 33.7541 10.6075 34.738 10.4637L39.7716 9.72797C40.162 9.6709 40.4995 9.42555 40.6741 9.07174L42.9241 4.51345Z" fill="#FFAA00"/>
<path d="M72.9241 4.51345C73.3643 3.62165 74.636 3.62165 75.0762 4.51345L77.3262 9.07174C77.5009 9.42555 77.8383 9.6709 78.2287 9.72797L83.2623 10.4637C84.2462 10.6075 84.6383 11.8169 83.926 12.5107L80.2856 16.0564C80.0026 16.3321 79.8734 16.7295 79.9402 17.1189L80.7991 22.1266C80.9672 23.107 79.9382 23.8546 79.0578 23.3916L74.5587 21.0256C74.209 20.8417 73.7913 20.8417 73.4416 21.0256L68.9425 23.3916C68.0622 23.8546 67.0331 23.107 67.2013 22.1266L68.0601 17.1189C68.1269 16.7295 67.9977 16.3321 67.7147 16.0564L64.0743 12.5107C63.362 11.8169 63.7541 10.6075 64.738 10.4637L69.7716 9.72797C70.162 9.6709 70.4995 9.42555 70.6741 9.07174L72.9241 4.51345Z" fill="#FFAA00"/>
<path d="M102.924 4.51345C103.364 3.62165 104.636 3.62165 105.076 4.51345L107.326 9.07174C107.501 9.42555 107.838 9.6709 108.229 9.72797L113.262 10.4637C114.246 10.6075 114.638 11.8169 113.926 12.5107L110.286 16.0564C110.003 16.3321 109.873 16.7295 109.94 17.1189L110.799 22.1266C110.967 23.107 109.938 23.8546 109.058 23.3916L104.559 21.0256C104.209 20.8417 103.791 20.8417 103.442 21.0256L98.9425 23.3916C98.0622 23.8546 97.0331 23.107 97.2013 22.1266L98.0601 17.1189C98.1269 16.7295 97.9977 16.3321 97.7147 16.0564L94.0743 12.5107C93.362 11.8169 93.7541 10.6075 94.738 10.4637L99.7716 9.72797C100.162 9.6709 100.499 9.42555 100.674 9.07174L102.924 4.51345Z" fill="#FFAA00"/>
<path d="M132.924 4.51345C133.364 3.62165 134.636 3.62165 135.076 4.51345L137.326 9.07174C137.501 9.42555 137.838 9.6709 138.229 9.72797L143.262 10.4637C144.246 10.6075 144.638 11.8169 143.926 12.5107L140.286 16.0564C140.003 16.3321 139.873 16.7295 139.94 17.1189L140.799 22.1266C140.967 23.107 139.938 23.8546 139.058 23.3916L134.559 21.0256C134.209 20.8417 133.791 20.8417 133.442 21.0256L128.943 23.3916C128.062 23.8546 127.033 23.107 127.201 22.1266L128.06 17.1189C128.127 16.7295 127.998 16.3321 127.715 16.0564L124.074 12.5107C123.362 11.8169 123.754 10.6075 124.738 10.4637L129.772 9.72797C130.162 9.6709 130.499 9.42555 130.674 9.07174L132.924 4.51345Z" fill="#FFAA00"/>
</svg>
