<svg width="19" height="19" viewBox="0 0 19 19" fill="none" xmlns="http://www.w3.org/2000/svg">
<path d="M12.1242 1.49173C13.4146 1.83879 14.5912 2.51884 15.5362 3.46376C16.4811 4.40868 17.1611 5.58531 17.5082 6.87577" stroke="#18191C" stroke-width="1.5" stroke-linecap="round" stroke-linejoin="round"/>
<path d="M11.3359 4.43356C12.1102 4.6418 12.8162 5.04983 13.3831 5.61678C13.9501 6.18374 14.3581 6.88971 14.5663 7.66399" stroke="#18191C" stroke-width="1.5" stroke-linecap="round" stroke-linejoin="round"/>
<path d="M5.75454 9.56218C6.54416 11.1765 7.85271 12.4791 9.47061 13.2614C9.58898 13.3175 9.71992 13.3418 9.85054 13.3319C9.98115 13.322 10.1069 13.2783 10.2155 13.205L12.5978 11.6165C12.7031 11.5462 12.8244 11.5034 12.9505 11.4918C13.0766 11.4802 13.2036 11.5003 13.32 11.5501L17.7767 13.4602C17.9281 13.5245 18.0545 13.6362 18.1368 13.7786C18.2192 13.921 18.253 14.0863 18.2332 14.2496C18.0924 15.3519 17.5546 16.365 16.7205 17.0993C15.8865 17.8336 14.8134 18.2387 13.7021 18.2387C10.27 18.2387 6.97842 16.8753 4.55153 14.4484C2.12464 12.0216 0.761229 8.72998 0.761229 5.29785C0.761288 4.18662 1.16639 3.11351 1.90068 2.27946C2.63497 1.4454 3.64809 0.90759 4.75035 0.766725C4.91365 0.746964 5.07895 0.780807 5.22134 0.863156C5.36373 0.945505 5.4755 1.0719 5.53981 1.22329L7.4515 5.68389C7.50095 5.79927 7.52109 5.92509 7.51015 6.05013C7.4992 6.17518 7.4575 6.29558 7.38876 6.40062L5.80575 8.81939C5.7337 8.9282 5.69111 9.05384 5.68213 9.18403C5.67316 9.31422 5.6981 9.44452 5.75454 9.56218V9.56218Z" stroke="#18191C" stroke-width="1.5" stroke-linecap="round" stroke-linejoin="round"/>
</svg>
