<svg width="23" height="23" viewBox="0 0 23 23" fill="none" xmlns="http://www.w3.org/2000/svg">
<path d="M11.5 20.0281C16.2099 20.0281 20.0281 16.2099 20.0281 11.5C20.0281 6.79007 16.2099 2.97191 11.5 2.97191C6.79007 2.97191 2.97191 6.79007 2.97191 11.5C2.97191 16.2099 6.79007 20.0281 11.5 20.0281Z" stroke="#767F8C" stroke-width="2" stroke-linecap="round" stroke-linejoin="round"/>
<path d="M11.5 1.03371V4.91011" stroke="#767F8C" stroke-width="2" stroke-linecap="round" stroke-linejoin="round"/>
<path d="M1.03371 11.5H4.91011" stroke="#767F8C" stroke-width="2" stroke-linecap="round" stroke-linejoin="round"/>
<path d="M11.5 21.9663V18.0899" stroke="#767F8C" stroke-width="2" stroke-linecap="round" stroke-linejoin="round"/>
<path d="M21.9663 11.5H18.0899" stroke="#767F8C" stroke-width="2" stroke-linecap="round" stroke-linejoin="round"/>
<path d="M11.5 14.6011C13.2127 14.6011 14.6011 13.2127 14.6011 11.5C14.6011 9.7873 13.2127 8.39888 11.5 8.39888C9.7873 8.39888 8.39888 9.7873 8.39888 11.5C8.39888 13.2127 9.7873 14.6011 11.5 14.6011Z" stroke="#767F8C" stroke-width="2" stroke-linecap="round" stroke-linejoin="round"/>
</svg>
