<svg width="32" height="32" viewBox="0 0 32 32" fill="none" xmlns="http://www.w3.org/2000/svg">
<g clip-path="url(#clip0_180_11041)">
<path opacity="0.2" d="M26.7207 5.3735C26.8698 5.33003 27.0269 5.32186 27.1796 5.34963C27.3324 5.3774 27.4765 5.44035 27.6007 5.5335C27.7249 5.62664 27.8257 5.74743 27.8952 5.88628C27.9646 6.02514 28.0007 6.17825 28.0007 6.3335V23.6668C28.0007 23.8221 27.9646 23.9752 27.8952 24.114C27.8257 24.2529 27.7249 24.3737 27.6007 24.4668C27.4765 24.56 27.3324 24.6229 27.1796 24.6507C27.0269 24.6785 26.8698 24.6703 26.7207 24.6268L15 21.2083V8.79204L26.7207 5.3735Z" fill="#0A65CC"/>
<path d="M28.0007 6.3335V23.6668C28.0007 23.8221 27.9646 23.9752 27.8952 24.114C27.8257 24.2529 27.7249 24.3737 27.6007 24.4668C27.4765 24.56 27.3324 24.6229 27.1796 24.6507C27.0269 24.6785 26.8698 24.6703 26.7207 24.6268L4.72073 18.2102C4.51302 18.1496 4.33056 18.0233 4.20073 17.8502C4.07091 17.6771 4.00073 17.4665 4.00073 17.2502V12.7502C4.00073 12.5338 4.07091 12.3233 4.20073 12.1502C4.33056 11.9771 4.51302 11.8507 4.72073 11.7902L26.7207 5.3735C26.8698 5.33003 27.0269 5.32186 27.1796 5.34963C27.3324 5.3774 27.4765 5.44035 27.6007 5.5335C27.7249 5.62664 27.8257 5.74743 27.8952 5.88628C27.9646 6.02514 28.0007 6.17825 28.0007 6.3335V6.3335Z" stroke="#0A65CC" stroke-width="2" stroke-linecap="round" stroke-linejoin="round"/>
<path d="M9 19.4582V24.0001C9 24.2653 9.10536 24.5197 9.29289 24.7072C9.48043 24.8948 9.73478 25.0001 10 25.0001H14C14.2652 25.0001 14.5196 24.8948 14.7071 24.7072C14.8946 24.5197 15 24.2653 15 24.0001V8.79199" stroke="#0A65CC" stroke-width="2" stroke-linecap="round" stroke-linejoin="round"/>
</g>
<defs>
<clipPath id="clip0_180_11041">
<rect width="32" height="32" fill="white" transform="matrix(-1 0 0 1 32 0)"/>
</clipPath>
</defs>
</svg>
